:SAMPLES-PER-SECOND 30
:FULLY-SPECIFIED
:DEGREES
1439
root  31.4299 38.0408 29.94 -46.4953 -84.5901 42.2271
RightUpLeg  -18.5053 -5.40339 -0.0991474
RightLeg  -3.52677 -27.2558 9.64032
RightFoot  -4.65557 -0.414661 6.54173
RightToes  0.000482159 0.542163 -0.142577
Spine  11.0173 -2.33386 -4.43374
Spine1  10.4742 -3.07393 -0.0388236
HEad  -2.70026 -15.4661 6.22599
LeftShoulder1  9.21361 -13.6057 -46.9912
LeftArm  -0.498924 3.69726 -29.5264
LeftForeArm  33.146 -25.7714 -3.77221
LeftHand  -0.25398 0.0180481 5.50724
RightShoulder  5.27244 8.98662 36.2254
RightArm  5.61011 -15.615 37.3972
RightForeArm  -1.00749 21.051 5.17819
RightHand  -5.10409 13.6293 -30.8696
LeftUpLeg  19.8397 4.19576 -7.146
LeftLeg  9.51547 6.98622 -3.37937
LeftFoot  -22.5995 0.311222 1.78315
LeftToes  1.06246e-005 4.65854e-005 -8.18502e-006
1440
root  29.8309 37.7971 30.426 -24.6266 -82.1878 20.405
RightUpLeg  -20.5067 -5.35295 1.24077
RightLeg  1.52016 -22.5873 7.23566
RightFoot  -2.79505 -0.0889029 1.16922
RightToes  0.000482159 0.542163 -0.142577
Spine  11.0767 -3.1197 -2.75776
Spine1  10.2742 -4.11674 0.938236
HEad  -3.52323 -16.7659 6.05688
LeftShoulder1  9.25822 -13.6846 -47.0023
LeftArm  0.187798 3.09541 -30.6745
LeftForeArm  33.6523 -26.3256 -3.86384
LeftHand  -0.25398 0.0180481 5.50724
RightShoulder  5.25829 9.01176 36.0323
RightArm  5.30177 -14.7653 36.5699
RightForeArm  -0.471314 21.3395 5.08854
RightHand  -5.70588 14.9699 -32.1388
LeftUpLeg  21.7209 5.36776 -5.44033
LeftLeg  11.3175 3.38071 -2.67027
LeftFoot  -22.7019 0.333905 1.99847
LeftToes  1.06246e-005 4.65854e-005 -8.18502e-006
1441
root  28.1381 37.6504 30.9771 -8.6424 -80.2575 4.0379
RightUpLeg  -23.2759 -8.9153 5.27191
RightLeg  10.0819 -15.6169 3.04126
RightFoot  0.414657 0.641513 -6.19148
RightToes  0.000482159 0.542163 -0.142577
Spine  11.7021 -3.77356 1.06324
Spine1  9.863 -4.6351 1.38621
HEad  -5.08771 -18.225 5.51924
LeftShoulder1  9.37129 -13.8409 -47.1512
LeftArm  0.699963 3.19885 -31.837
LeftForeArm  34.3928 -27.1254 -3.9972
LeftHand  -0.25398 0.0180481 5.50724
RightShoulder  5.27123 9.04181 36.0346
RightArm  3.96533 -14.0907 35.1644
RightForeArm  -0.950843 21.6526 5.04915
RightHand  -6.58315 16.7356 -33.9845
LeftUpLeg  23.7811 7.24911 -2.14503
LeftLeg  13.772 -0.903838 -1.68403
LeftFoot  -22.0277 0.170694 0.406173
LeftToes  1.06246e-005 4.65854e-005 -8.18502e-006
1442
root  26.3812 37.5668 31.5676 3.42657 -79.5719 -8.45111
RightUpLeg  -25.6738 -15.4893 11.1023
RightLeg  17.8942 -6.43028 -1.26005
RightFoot  2.67835 1.31037 -10.5456
RightToes  0.000482159 0.542163 -0.142577
Spine  12.2418 -4.09051 5.82143
Spine1  9.27457 -4.30277 1.07462
HEad  -6.86095 -19.2447 4.76273
LeftShoulder1  9.44827 -13.96 -47.2157
LeftArm  1.50301 4.3386 -32.7505
LeftForeArm  34.3312 -28.1232 -4.21746
LeftHand  -0.25398 0.0180481 5.50724
RightShoulder  5.35437 9.20037 36.1616
RightArm  1.93414 -13.2476 33.5466
RightForeArm  -0.897124 21.5726 5.02954
RightHand  -7.40681 18.382 -35.4675
LeftUpLeg  24.7391 8.90518 1.22023
LeftLeg  17.8895 -3.76894 -1.23796
LeftFoot  -19.4715 -0.0935033 -3.09359
LeftToes  1.06246e-005 4.65854e-005 -8.18502e-006
1443
root  24.6159 37.5673 32.0943 12.4575 -79.4938 -17.3365
RightUpLeg  -26.2156 -14.8597 12.5358
RightLeg  23.2381 -6.21023 -3.31404
RightFoot  2.1307 1.38296 -11.5391
RightToes  0.000482159 0.542163 -0.142577
Spine  12.2488 -4.1971 9.53916
Spine1  8.49862 -3.78433 0.887682
HEad  -7.44735 -19.5789 3.96209
LeftShoulder1  9.41205 -13.9274 -47.1207
LeftArm  2.92017 6.62535 -32.9572
LeftForeArm  32.7967 -29.0822 -4.51065
LeftHand  -0.25398 0.0180481 5.50724
RightShoulder  5.44349 9.40492 36.1839
RightArm  -0.415003 -12.1771 32.5256
RightForeArm  0.0224037 20.9658 5.0095
RightHand  -7.92207 19.4703 -36.1997
LeftUpLeg  22.3656 9.61505 3.41344
LeftLeg  25.7794 -3.05141 -1.18915
LeftFoot  -12.4496 0.00916065 -5.74948
LeftToes  1.06246e-005 4.65854e-005 -8.18502e-006
